<?xml version="1.0" encoding="utf-8"?>
<!-- Generator: Adobe Illustrator 25.2.0, SVG Export Plug-In . SVG Version: 6.00 Build 0)  -->
<svg version="1.1" id="Layer_1" xmlns="http://www.w3.org/2000/svg" xmlns:xlink="http://www.w3.org/1999/xlink" x="0px" y="0px"
	 viewBox="0 0 1280 1024" style="enable-background:new 0 0 1280 1024;" xml:space="preserve">
<style type="text/css">
	.st0{fill:#6200EA;}
</style>
<g>
	<path d="M424.22,700.12c-4.36-1.33-7.81-3.09-10.35-5.28l3.9-8.75c2.48,1.96,5.53,3.56,9.14,4.81c3.61,1.24,7.23,1.86,10.87,1.86
		c4.5,0,7.86-0.72,10.09-2.16c2.22-1.44,3.33-3.35,3.33-5.72c0-1.73-0.62-3.16-1.86-4.29c-1.24-1.12-2.81-2-4.72-2.64
		c-1.9-0.63-4.5-1.36-7.79-2.17c-4.62-1.1-8.36-2.19-11.21-3.29c-2.86-1.1-5.31-2.81-7.36-5.15c-2.05-2.34-3.07-5.5-3.07-9.48
		c0-3.35,0.91-6.39,2.73-9.13c1.82-2.74,4.56-4.92,8.23-6.54c3.67-1.62,8.15-2.42,13.47-2.42c3.69,0,7.33,0.46,10.91,1.39
		c3.58,0.92,6.67,2.25,9.27,3.98l-3.55,8.75c-2.66-1.56-5.43-2.74-8.31-3.55c-2.89-0.81-5.69-1.21-8.4-1.21
		c-4.45,0-7.75,0.75-9.91,2.25c-2.16,1.5-3.25,3.49-3.25,5.97c0,1.73,0.62,3.15,1.86,4.24c1.24,1.1,2.81,1.96,4.72,2.6
		c1.9,0.64,4.5,1.36,7.79,2.17c4.5,1.04,8.2,2.12,11.08,3.25c2.89,1.13,5.35,2.84,7.4,5.15c2.05,2.31,3.07,5.43,3.07,9.35
		c0,3.35-0.91,6.38-2.73,9.09c-1.82,2.71-4.58,4.88-8.27,6.49c-3.7,1.62-8.2,2.42-13.51,2.42
		C433.09,702.12,428.57,701.45,424.22,700.12z"/>
	<path d="M537,687.22h-30.31l-5.97,14.03h-11.6l27.28-60.61h11.08l27.36,60.61h-11.78L537,687.22z M533.28,678.39l-11.43-26.5
		l-11.34,26.5H533.28z"/>
	<path d="M625.45,643.23c3.9,1.73,6.88,4.21,8.96,7.45c2.08,3.23,3.12,7.07,3.12,11.52c0,4.39-1.04,8.21-3.12,11.47
		c-2.08,3.26-5.07,5.76-8.96,7.49c-3.9,1.73-8.47,2.6-13.72,2.6h-13.68v17.49h-11.26v-60.61h24.94
		C616.98,640.64,621.56,641.5,625.45,643.23z M622.38,671.12c2.54-2.08,3.81-5.05,3.81-8.92c0-3.87-1.27-6.84-3.81-8.92
		c-2.54-2.08-6.26-3.12-11.17-3.12h-13.16v24.07h13.16C616.11,674.23,619.84,673.19,622.38,671.12z"/>
	<path d="M673.04,640.64h11.26v60.61h-11.26V640.64z"/>
	<path d="M770.36,691.81v9.44H724.9v-60.61h44.25v9.44h-32.99v15.76h29.27v9.27h-29.27v16.71H770.36z"/>
	<path d="M861.02,640.64v60.61h-9.27l-33.42-41.04v41.04h-11.17v-60.61h9.27l33.42,41.04v-41.04H861.02z"/>
</g>
<g>
	<path class="st0" d="M786.3,441.95v-0.01c-0.49-15.68-3.49-31.18-8.83-45.86c-0.98-2.69-4.07-3.94-6.65-2.72l-21.42,10.13
		l-9.07,4.29l-79.91,37.76c-3.76,1.78-6.71,4.59-8.67,7.94c-0.05,0.07-0.09,0.15-0.14,0.22c-0.05,0.08-0.09,0.15-0.13,0.23
		c-1.91,3.37-2.87,7.34-2.53,11.48l6.85,83.23c0.17,2.03,2.06,3.48,4.06,3.1c12.54-2.35,24.43-6.85,35.41-13.4
		c0.01,0,0.02-0.01,0.02-0.01c1.34-0.79,1.96-2.39,1.53-3.89l-16.31-57.03c-0.68-2.38-0.63-4.8,0-7.03c1.61-1.65,3.68-2.9,6.08-3.51
		l60.75-15.18v-0.01l10.1-2.52c-0.07,2.87-0.24,5.76-0.53,8.64v0.01c-1.57,16.13-6.53,32.17-15.15,47.11
		c-8.81,15.27-20.55,27.8-34.11,37.31c-2.36,1.66-4.78,3.23-7.25,4.7c-13.36,7.97-28.17,13.21-43.47,15.45
		c-2.72,0.39-5.46,0.7-8.21,0.9c-2.94,0.23-5.9,0.34-8.86,0.34l-2.7,0c-3.28,0-6.01,2.52-6.28,5.79l-1.35,16.34
		c-0.29,3.54,2.45,6.6,6,6.7c1.43,0.04,2.85,0.06,4.28,0.06c3.77,0,7.53-0.14,11.28-0.44c2.75-0.2,5.48-0.5,8.21-0.86
		c17.19-2.3,33.89-7.62,49.26-15.74c2.51-1.32,4.98-2.71,7.4-4.18c20.42-12.34,38.09-29.85,50.83-51.92
		c12.56-21.75,18.88-45.41,19.52-68.91C786.39,447.62,786.38,444.78,786.3,441.95z"/>
	<path class="st0" d="M618.73,359.75c0,11.27,9.13,20.4,20.4,20.4s20.4-9.13,20.4-20.4c0-11.27-9.13-20.4-20.4-20.4
		S618.73,348.49,618.73,359.75z"/>
	<path class="st0" d="M555.14,380.34l72.51,50.22c3.42,2.37,7.33,3.51,11.21,3.55h0.52c3.89-0.04,7.8-1.18,11.23-3.55l70.62-48.92
		c1.67-1.16,1.98-3.5,0.67-5.05c-7.94-9.37-17.39-17.25-28.14-23.44c-0.51-0.29-0.99-0.57-1.48-0.84c-0.03-0.01-0.05-0.03-0.08-0.04
		c-1.35-0.75-3.05-0.49-4.13,0.62l-42.87,44.33c-1.71,1.79-3.83,2.95-6.07,3.52c-2.25-0.57-4.36-1.73-6.09-3.52l-44.03-45.53
		l-7.2-7.45c2.51-1.42,5.05-2.75,7.64-3.98c15.82-7.53,33.2-11.48,50.79-11.48c16.59,0,33.36,3.52,49.17,10.85
		c2.59,1.2,5.16,2.51,7.69,3.92c0.55,0.31,1.11,0.62,1.66,0.94c13.44,7.76,24.77,17.79,33.77,29.33c1.7,2.18,3.32,4.41,4.85,6.69
		c2.21,3.28,4.24,6.66,6.1,10.13c1.55,2.9,5.07,4.12,8.05,2.71l15-7.09c3.16-1.49,4.49-5.32,2.87-8.41
		c-2.49-4.73-5.24-9.34-8.26-13.79c-1.54-2.28-3.15-4.51-4.83-6.7c-10.36-13.62-23.29-25.6-38.56-35.15c-1.48-0.94-3-1.85-4.54-2.74
		c-0.92-0.53-1.86-1.05-2.79-1.56c-33.21-18.25-71.53-22.89-108.25-13.05c-11.93,3.19-23.24,7.79-33.74,13.66
		c-2.48,1.38-4.91,2.84-7.28,4.36c-13.19,8.4-24.92,18.9-34.83,31.18c-1.77,2.2-1.29,5.44,1.03,7.05l19.56,13.54L555.14,380.34z"/>
	
		<ellipse transform="matrix(0.4415 -0.8973 0.8973 0.4415 -126.3538 780.8009)" class="st0" cx="563.99" cy="491.89" rx="20.4" ry="20.4"/>
	<path class="st0" d="M628.53,454.93c-0.05-0.07-0.1-0.15-0.14-0.22c-0.04-0.07-0.08-0.15-0.13-0.22c-1.96-3.36-4.92-6.16-8.68-7.95
		l-76.79-36.28c-1.86-0.88-4.08,0.06-4.73,2.01c-4.07,12.13-5.9,24.74-5.43,37.55c0,0.11,0.01,0.22,0.01,0.33
		c0.05,1.52,1.12,2.82,2.6,3.19l58.18,14.54c2.4,0.6,4.46,1.86,6.08,3.51c0.63,2.23,0.68,4.64-0.01,7.03l-16.77,58.64l-2.85,9.98
		c-2.49-1.48-4.91-3.04-7.25-4.68c-22.62-15.78-38.8-38.81-46.01-65.76c-1.58-5.88-2.7-11.81-3.34-17.75
		c-0.33-2.89-0.54-5.78-0.64-8.67c-0.57-15.62,2.02-31.16,7.65-45.84c0.98-2.57,2.06-5.1,3.24-7.6c1.46-3.14,3.06-6.23,4.81-9.26
		l0.75-1.29c1.62-2.79,0.82-6.35-1.83-8.19l-13.6-9.42c-2.95-2.05-6.99-1.14-8.85,1.93c-0.51,0.84-1,1.68-1.5,2.53
		c-2.14,3.72-4.12,7.5-5.92,11.35c-1.17,2.5-2.27,5.03-3.28,7.58c-6.57,16.34-10.07,33.56-10.43,50.98
		c-0.06,2.84-0.04,5.68,0.08,8.53c0.4,10.89,2.05,21.82,4.94,32.61c5.05,18.88,13.64,36.2,25.19,51.25
		c10.97,14.29,24.6,26.53,40.42,36.09c0.85,0.52,1.7,1.02,2.57,1.52c1.6,0.92,3.2,1.81,4.82,2.66c14.09,7.46,28.9,12.37,43.88,14.9
		c2.8,0.47,5.41-1.57,5.64-4.41l1.95-23.66l0.82-9.99l7.08-86.02C631.4,462.27,630.44,458.31,628.53,454.93z"/>
	
		<ellipse transform="matrix(0.7724 -0.6352 0.6352 0.7724 -148.8126 566.5489)" class="st0" cx="716" cy="490.89" rx="20.4" ry="20.4"/>
</g>
</svg>
